<?xml version="1.0" encoding="UTF-8" standalone="no"?>
<!-- Created with Inkscape (http://www.inkscape.org/) -->

<svg
   width="512"
   height="512"
   viewBox="0 0 135.46666 135.46667"
   version="1.1"
   id="svg1"
   inkscape:version="1.4.2 (ebf0e940d0, 2025-05-08)"
   sodipodi:docname="nfd-logo.svg"
   xmlns:inkscape="http://www.inkscape.org/namespaces/inkscape"
   xmlns:sodipodi="http://sodipodi.sourceforge.net/DTD/sodipodi-0.dtd"
   xmlns="http://www.w3.org/2000/svg"
   xmlns:svg="http://www.w3.org/2000/svg">
  <sodipodi:namedview
     id="namedview1"
     pagecolor="#ffffff"
     bordercolor="#000000"
     borderopacity="0.25"
     inkscape:showpageshadow="2"
     inkscape:pageopacity="0.0"
     inkscape:pagecheckerboard="0"
     inkscape:document-units="px"
     inkscape:zoom="1.6106622"
     inkscape:cx="709.95644"
     inkscape:cy="562.50156"
     inkscape:window-width="3836"
     inkscape:window-height="2072"
     inkscape:window-x="0"
     inkscape:window-y="42"
     inkscape:window-maximized="1"
     inkscape:current-layer="layer1"
     showgrid="false" />
  <defs
     id="defs1" />
  <g
     inkscape:label="Layer 1"
     inkscape:groupmode="layer"
     id="layer1">
    <path
       id="rect1"
       style="fill:#326de5;stroke-width:0.252149"
       d="M 0,0 H 135.46666 V 135.46666 H 0 Z" />
    <path
       d="m 3.0426476,56.576763 q 3.3513871,-0.970138 8.6430514,-1.763888 5.291663,-0.881944 11.112494,-0.881944 5.909024,0 9.789578,1.587499 3.968747,1.499305 6.261802,4.321526 2.293054,2.82222 3.263192,6.702774 0.970139,3.880553 0.970139,8.643051 V 101.37952 H 29.941939 V 76.77328 q 0,-6.349997 -1.675694,-8.995829 -1.675693,-2.645832 -6.261802,-2.645832 -1.41111,0 -2.99861,0.176389 -1.587499,0.08819 -2.82222,0.264583 V 101.37952 H 3.0426476 Z M 75.09753,32.940665 q 3.704165,0 6.790969,0.793749 3.086804,0.705555 4.762497,1.41111 l -2.557637,10.495134 q -1.763888,-0.79375 -3.880554,-1.146527 -2.028471,-0.440972 -3.792359,-0.440972 -2.381249,0 -4.056942,0.705555 -1.587499,0.617361 -2.557638,1.763888 -0.881944,1.146527 -1.322916,2.734026 -0.352777,1.587499 -0.352777,3.439581 v 2.293055 H 84.357942 V 65.925369 H 68.130173 V 101.37952 H 54.989208 V 52.519821 q 0,-8.995829 5.02708,-14.287493 5.115275,-5.291663 15.081242,-5.291663 z m 27.60497,44.890948 q 0,6.085413 2.73403,9.789578 2.73403,3.704164 8.11388,3.704164 1.76389,0 3.2632,-0.08819 1.4993,-0.176389 2.46944,-0.352778 V 66.983702 q -1.23472,-0.79375 -3.26319,-1.322916 -1.94028,-0.529167 -3.96875,-0.529167 -9.34861,0 -9.34861,12.699994 z m 29.72152,22.048599 q -1.76389,0.529168 -4.05695,1.058328 -2.29305,0.44098 -4.85069,0.79375 -2.46944,0.35278 -5.11527,0.52917 -2.55764,0.26458 -4.93889,0.26458 -5.73264,0 -10.23055,-1.67569 -4.497914,-1.675693 -7.584718,-4.762497 -3.086804,-3.174999 -4.762498,-7.584718 -1.587499,-4.497915 -1.587499,-10.054162 0,-5.644441 1.411111,-10.142355 1.41111,-4.586109 4.056942,-7.761107 2.645832,-3.174998 6.438192,-4.850692 3.88055,-1.675694 8.81944,-1.675694 2.73402,0 4.85069,0.529167 2.20486,0.529166 4.40972,1.499305 V 35.05733 l 13.14097,-2.116665 z"
       id="text2"
       style="font-weight:bold;font-size:88.1944px;font-family:Ubuntu;-inkscape-font-specification:'Ubuntu Bold';text-align:center;text-anchor:middle;fill:#ffffff;stroke-width:0.264583"
       aria-label="nfd" />
  </g>
</svg>
