<svg xmlns="http://www.w3.org/2000/svg" width="533.333" height="533.333" preserveAspectRatio="xMidYMid meet" version="1.0" viewBox="0 0 400 400"><metadata>Created by potrace 1.14, written by Peter Selinger 2001-2017</metadata><g fill="#907f14" stroke="none"><path d="M0 2000 l0 -2000 2000 0 2000 0 0 2000 0 2000 -2000 0 -2000 0 0 -2000z m2647 1253 c-3 -10 -8 -39 -12 -65 -6 -46 -8 -48 -48 -58 -60 -16 -94 -30 -122 -52 -39 -31 -42 10 71 -1118 30 -305 56 -556 58 -557 3 -3 30 75 285 822 242 707 263 783 227 838 -19 28 -82 61 -138 71 -34 6 -37 9 -33 34 2 15 7 44 10 65 l6 37 281 0 281 0 -7 -37 c-3 -21 -6 -49 -6 -63 0 -20 -9 -29 -48 -47 -61 -28 -136 -102 -169 -167 -14 -28 -44 -98 -65 -155 -44 -118 -501 -1397 -630 -1766 l-85 -240 -96 -3 c-93 -3 -97 -2 -101 20 -3 13 -19 172 -36 353 -64 687 -171 1732 -181 1775 -13 59 -49 120 -94 159 -41 35 -53 37 -118 15 -61 -21 -100 -66 -115 -135 -6 -29 -52 -378 -102 -774 -50 -396 -99 -758 -110 -805 -52 -237 -146 -420 -277 -540 -88 -81 -148 -105 -258 -105 -78 0 -97 4 -140 27 -57 30 -134 107 -163 164 -62 122 -92 314 -73 464 15 115 44 193 91 243 31 33 44 40 86 44 66 6 109 -22 146 -97 74 -149 55 -328 -52 -510 -22 -36 -40 -78 -40 -92 0 -63 78 -105 138 -74 45 23 98 90 126 161 62 155 72 219 197 1215 59 478 81 676 75 705 -9 47 -59 98 -113 115 -21 7 -42 16 -46 20 -5 4 -5 35 -1 69 l7 61 699 0 c661 0 699 -1 695 -17z" transform="translate(0.000000,400.000000) scale(0.100000,-0.100000)"/></g></svg>